<mxfile host="app.diagrams.net" modified="2023-05-26T17:29:58.030Z" agent="Mozilla/5.0 (Windows NT 10.0; Win64; x64) AppleWebKit/537.36 (KHTML, like Gecko) Chrome/113.0.0.0 Safari/537.36" etag="Lsgo1zYlfRi0dPrs6hso" version="21.3.2" type="device">
  <diagram name="Trang-1" id="oIvpLG2PVgmO7TC9vFKs">
    <mxGraphModel dx="4081" dy="2009" grid="1" gridSize="10" guides="1" tooltips="1" connect="1" arrows="1" fold="1" page="1" pageScale="1" pageWidth="827" pageHeight="1169" math="0" shadow="0">
      <root>
        <mxCell id="0" />
        <mxCell id="1" parent="0" />
        <mxCell id="Xz7eyc5uEQ6jUvVsmEZb-2" value="" style="rounded=0;whiteSpace=wrap;html=1;" vertex="1" parent="1">
          <mxGeometry x="230" y="80" width="500" height="540" as="geometry" />
        </mxCell>
        <mxCell id="Xz7eyc5uEQ6jUvVsmEZb-3" value="Sinh viên / Giảng viên đăng ký" style="text;html=1;strokeColor=none;fillColor=none;align=center;verticalAlign=middle;whiteSpace=wrap;rounded=0;fontSize=21;fontStyle=1" vertex="1" parent="1">
          <mxGeometry x="315" y="100" width="330" height="30" as="geometry" />
        </mxCell>
        <mxCell id="Xz7eyc5uEQ6jUvVsmEZb-4" value="Table" style="shape=table;startSize=30;container=1;collapsible=1;childLayout=tableLayout;fixedRows=1;rowLines=0;fontStyle=1;align=center;resizeLast=1;html=1;fontSize=15;verticalAlign=top;" vertex="1" parent="1">
          <mxGeometry x="324" y="170" width="300" height="400" as="geometry" />
        </mxCell>
        <mxCell id="Xz7eyc5uEQ6jUvVsmEZb-5" value="" style="shape=tableRow;horizontal=0;startSize=0;swimlaneHead=0;swimlaneBody=0;fillColor=none;collapsible=0;dropTarget=0;points=[[0,0.5],[1,0.5]];portConstraint=eastwest;top=0;left=0;right=0;bottom=1;" vertex="1" parent="Xz7eyc5uEQ6jUvVsmEZb-4">
          <mxGeometry y="30" width="300" height="30" as="geometry" />
        </mxCell>
        <mxCell id="Xz7eyc5uEQ6jUvVsmEZb-6" value="PK" style="shape=partialRectangle;connectable=0;fillColor=none;top=0;left=0;bottom=0;right=0;fontStyle=1;overflow=hidden;whiteSpace=wrap;html=1;" vertex="1" parent="Xz7eyc5uEQ6jUvVsmEZb-5">
          <mxGeometry width="30" height="30" as="geometry">
            <mxRectangle width="30" height="30" as="alternateBounds" />
          </mxGeometry>
        </mxCell>
        <mxCell id="Xz7eyc5uEQ6jUvVsmEZb-7" value="UniqueID" style="shape=partialRectangle;connectable=0;fillColor=none;top=0;left=0;bottom=0;right=0;align=left;spacingLeft=6;fontStyle=5;overflow=hidden;whiteSpace=wrap;html=1;" vertex="1" parent="Xz7eyc5uEQ6jUvVsmEZb-5">
          <mxGeometry x="30" width="270" height="30" as="geometry">
            <mxRectangle width="270" height="30" as="alternateBounds" />
          </mxGeometry>
        </mxCell>
        <mxCell id="Xz7eyc5uEQ6jUvVsmEZb-27" value="" style="shape=tableRow;horizontal=0;startSize=0;swimlaneHead=0;swimlaneBody=0;fillColor=none;collapsible=0;dropTarget=0;points=[[0,0.5],[1,0.5]];portConstraint=eastwest;top=0;left=0;right=0;bottom=0;" vertex="1" parent="Xz7eyc5uEQ6jUvVsmEZb-4">
          <mxGeometry y="60" width="300" height="30" as="geometry" />
        </mxCell>
        <mxCell id="Xz7eyc5uEQ6jUvVsmEZb-28" value="" style="shape=partialRectangle;connectable=0;fillColor=none;top=0;left=0;bottom=0;right=0;editable=1;overflow=hidden;" vertex="1" parent="Xz7eyc5uEQ6jUvVsmEZb-27">
          <mxGeometry width="30" height="30" as="geometry">
            <mxRectangle width="30" height="30" as="alternateBounds" />
          </mxGeometry>
        </mxCell>
        <mxCell id="Xz7eyc5uEQ6jUvVsmEZb-29" value="Ho va Ten" style="shape=partialRectangle;connectable=0;fillColor=none;top=0;left=0;bottom=0;right=0;align=left;spacingLeft=6;overflow=hidden;" vertex="1" parent="Xz7eyc5uEQ6jUvVsmEZb-27">
          <mxGeometry x="30" width="270" height="30" as="geometry">
            <mxRectangle width="270" height="30" as="alternateBounds" />
          </mxGeometry>
        </mxCell>
        <mxCell id="Xz7eyc5uEQ6jUvVsmEZb-30" value="" style="shape=tableRow;horizontal=0;startSize=0;swimlaneHead=0;swimlaneBody=0;fillColor=none;collapsible=0;dropTarget=0;points=[[0,0.5],[1,0.5]];portConstraint=eastwest;top=0;left=0;right=0;bottom=0;" vertex="1" parent="Xz7eyc5uEQ6jUvVsmEZb-4">
          <mxGeometry y="90" width="300" height="30" as="geometry" />
        </mxCell>
        <mxCell id="Xz7eyc5uEQ6jUvVsmEZb-31" value="" style="shape=partialRectangle;connectable=0;fillColor=none;top=0;left=0;bottom=0;right=0;editable=1;overflow=hidden;" vertex="1" parent="Xz7eyc5uEQ6jUvVsmEZb-30">
          <mxGeometry width="30" height="30" as="geometry">
            <mxRectangle width="30" height="30" as="alternateBounds" />
          </mxGeometry>
        </mxCell>
        <mxCell id="Xz7eyc5uEQ6jUvVsmEZb-32" value="Gioi tinh" style="shape=partialRectangle;connectable=0;fillColor=none;top=0;left=0;bottom=0;right=0;align=left;spacingLeft=6;overflow=hidden;" vertex="1" parent="Xz7eyc5uEQ6jUvVsmEZb-30">
          <mxGeometry x="30" width="270" height="30" as="geometry">
            <mxRectangle width="270" height="30" as="alternateBounds" />
          </mxGeometry>
        </mxCell>
        <mxCell id="Xz7eyc5uEQ6jUvVsmEZb-8" value="" style="shape=tableRow;horizontal=0;startSize=0;swimlaneHead=0;swimlaneBody=0;fillColor=none;collapsible=0;dropTarget=0;points=[[0,0.5],[1,0.5]];portConstraint=eastwest;top=0;left=0;right=0;bottom=0;" vertex="1" parent="Xz7eyc5uEQ6jUvVsmEZb-4">
          <mxGeometry y="120" width="300" height="30" as="geometry" />
        </mxCell>
        <mxCell id="Xz7eyc5uEQ6jUvVsmEZb-9" value="" style="shape=partialRectangle;connectable=0;fillColor=none;top=0;left=0;bottom=0;right=0;editable=1;overflow=hidden;whiteSpace=wrap;html=1;" vertex="1" parent="Xz7eyc5uEQ6jUvVsmEZb-8">
          <mxGeometry width="30" height="30" as="geometry">
            <mxRectangle width="30" height="30" as="alternateBounds" />
          </mxGeometry>
        </mxCell>
        <mxCell id="Xz7eyc5uEQ6jUvVsmEZb-10" value="taiKhoan&lt;span style=&quot;white-space: pre;&quot;&gt;	&lt;/span&gt;(CHECK EXITST )" style="shape=partialRectangle;connectable=0;fillColor=none;top=0;left=0;bottom=0;right=0;align=left;spacingLeft=6;overflow=hidden;whiteSpace=wrap;html=1;" vertex="1" parent="Xz7eyc5uEQ6jUvVsmEZb-8">
          <mxGeometry x="30" width="270" height="30" as="geometry">
            <mxRectangle width="270" height="30" as="alternateBounds" />
          </mxGeometry>
        </mxCell>
        <mxCell id="Xz7eyc5uEQ6jUvVsmEZb-11" value="" style="shape=tableRow;horizontal=0;startSize=0;swimlaneHead=0;swimlaneBody=0;fillColor=none;collapsible=0;dropTarget=0;points=[[0,0.5],[1,0.5]];portConstraint=eastwest;top=0;left=0;right=0;bottom=0;" vertex="1" parent="Xz7eyc5uEQ6jUvVsmEZb-4">
          <mxGeometry y="150" width="300" height="30" as="geometry" />
        </mxCell>
        <mxCell id="Xz7eyc5uEQ6jUvVsmEZb-12" value="" style="shape=partialRectangle;connectable=0;fillColor=none;top=0;left=0;bottom=0;right=0;editable=1;overflow=hidden;whiteSpace=wrap;html=1;" vertex="1" parent="Xz7eyc5uEQ6jUvVsmEZb-11">
          <mxGeometry width="30" height="30" as="geometry">
            <mxRectangle width="30" height="30" as="alternateBounds" />
          </mxGeometry>
        </mxCell>
        <mxCell id="Xz7eyc5uEQ6jUvVsmEZb-13" value="mat khau" style="shape=partialRectangle;connectable=0;fillColor=none;top=0;left=0;bottom=0;right=0;align=left;spacingLeft=6;overflow=hidden;whiteSpace=wrap;html=1;" vertex="1" parent="Xz7eyc5uEQ6jUvVsmEZb-11">
          <mxGeometry x="30" width="270" height="30" as="geometry">
            <mxRectangle width="270" height="30" as="alternateBounds" />
          </mxGeometry>
        </mxCell>
        <mxCell id="Xz7eyc5uEQ6jUvVsmEZb-14" value="" style="shape=tableRow;horizontal=0;startSize=0;swimlaneHead=0;swimlaneBody=0;fillColor=none;collapsible=0;dropTarget=0;points=[[0,0.5],[1,0.5]];portConstraint=eastwest;top=0;left=0;right=0;bottom=0;" vertex="1" parent="Xz7eyc5uEQ6jUvVsmEZb-4">
          <mxGeometry y="180" width="300" height="30" as="geometry" />
        </mxCell>
        <mxCell id="Xz7eyc5uEQ6jUvVsmEZb-15" value="" style="shape=partialRectangle;connectable=0;fillColor=none;top=0;left=0;bottom=0;right=0;editable=1;overflow=hidden;whiteSpace=wrap;html=1;" vertex="1" parent="Xz7eyc5uEQ6jUvVsmEZb-14">
          <mxGeometry width="30" height="30" as="geometry">
            <mxRectangle width="30" height="30" as="alternateBounds" />
          </mxGeometry>
        </mxCell>
        <mxCell id="Xz7eyc5uEQ6jUvVsmEZb-16" value="nhap lai mat khau (CHECK TRUNG MK)" style="shape=partialRectangle;connectable=0;fillColor=none;top=0;left=0;bottom=0;right=0;align=left;spacingLeft=6;overflow=hidden;whiteSpace=wrap;html=1;" vertex="1" parent="Xz7eyc5uEQ6jUvVsmEZb-14">
          <mxGeometry x="30" width="270" height="30" as="geometry">
            <mxRectangle width="270" height="30" as="alternateBounds" />
          </mxGeometry>
        </mxCell>
        <mxCell id="Xz7eyc5uEQ6jUvVsmEZb-18" value="" style="shape=tableRow;horizontal=0;startSize=0;swimlaneHead=0;swimlaneBody=0;fillColor=none;collapsible=0;dropTarget=0;points=[[0,0.5],[1,0.5]];portConstraint=eastwest;top=0;left=0;right=0;bottom=0;" vertex="1" parent="Xz7eyc5uEQ6jUvVsmEZb-4">
          <mxGeometry y="210" width="300" height="30" as="geometry" />
        </mxCell>
        <mxCell id="Xz7eyc5uEQ6jUvVsmEZb-19" value="" style="shape=partialRectangle;connectable=0;fillColor=none;top=0;left=0;bottom=0;right=0;editable=1;overflow=hidden;" vertex="1" parent="Xz7eyc5uEQ6jUvVsmEZb-18">
          <mxGeometry width="30" height="30" as="geometry">
            <mxRectangle width="30" height="30" as="alternateBounds" />
          </mxGeometry>
        </mxCell>
        <mxCell id="Xz7eyc5uEQ6jUvVsmEZb-20" value="mssv / mgv" style="shape=partialRectangle;connectable=0;fillColor=none;top=0;left=0;bottom=0;right=0;align=left;spacingLeft=6;overflow=hidden;" vertex="1" parent="Xz7eyc5uEQ6jUvVsmEZb-18">
          <mxGeometry x="30" width="270" height="30" as="geometry">
            <mxRectangle width="270" height="30" as="alternateBounds" />
          </mxGeometry>
        </mxCell>
        <mxCell id="Xz7eyc5uEQ6jUvVsmEZb-21" value="" style="shape=tableRow;horizontal=0;startSize=0;swimlaneHead=0;swimlaneBody=0;fillColor=none;collapsible=0;dropTarget=0;points=[[0,0.5],[1,0.5]];portConstraint=eastwest;top=0;left=0;right=0;bottom=0;" vertex="1" parent="Xz7eyc5uEQ6jUvVsmEZb-4">
          <mxGeometry y="240" width="300" height="30" as="geometry" />
        </mxCell>
        <mxCell id="Xz7eyc5uEQ6jUvVsmEZb-22" value="" style="shape=partialRectangle;connectable=0;fillColor=none;top=0;left=0;bottom=0;right=0;editable=1;overflow=hidden;" vertex="1" parent="Xz7eyc5uEQ6jUvVsmEZb-21">
          <mxGeometry width="30" height="30" as="geometry">
            <mxRectangle width="30" height="30" as="alternateBounds" />
          </mxGeometry>
        </mxCell>
        <mxCell id="Xz7eyc5uEQ6jUvVsmEZb-23" value="" style="shape=partialRectangle;connectable=0;fillColor=none;top=0;left=0;bottom=0;right=0;align=left;spacingLeft=6;overflow=hidden;" vertex="1" parent="Xz7eyc5uEQ6jUvVsmEZb-21">
          <mxGeometry x="30" width="270" height="30" as="geometry">
            <mxRectangle width="270" height="30" as="alternateBounds" />
          </mxGeometry>
        </mxCell>
        <mxCell id="Xz7eyc5uEQ6jUvVsmEZb-24" value="" style="shape=tableRow;horizontal=0;startSize=0;swimlaneHead=0;swimlaneBody=0;fillColor=none;collapsible=0;dropTarget=0;points=[[0,0.5],[1,0.5]];portConstraint=eastwest;top=0;left=0;right=0;bottom=0;" vertex="1" parent="Xz7eyc5uEQ6jUvVsmEZb-4">
          <mxGeometry y="270" width="300" height="30" as="geometry" />
        </mxCell>
        <mxCell id="Xz7eyc5uEQ6jUvVsmEZb-25" value="" style="shape=partialRectangle;connectable=0;fillColor=none;top=0;left=0;bottom=0;right=0;editable=1;overflow=hidden;" vertex="1" parent="Xz7eyc5uEQ6jUvVsmEZb-24">
          <mxGeometry width="30" height="30" as="geometry">
            <mxRectangle width="30" height="30" as="alternateBounds" />
          </mxGeometry>
        </mxCell>
        <mxCell id="Xz7eyc5uEQ6jUvVsmEZb-26" value="email@student.tdmu @tdmu.edu.vn &#xa;( CHECK FORMAT)" style="shape=partialRectangle;connectable=0;fillColor=none;top=0;left=0;bottom=0;right=0;align=left;spacingLeft=6;overflow=hidden;" vertex="1" parent="Xz7eyc5uEQ6jUvVsmEZb-24">
          <mxGeometry x="30" width="270" height="30" as="geometry">
            <mxRectangle width="270" height="30" as="alternateBounds" />
          </mxGeometry>
        </mxCell>
        <mxCell id="Xz7eyc5uEQ6jUvVsmEZb-36" style="edgeStyle=orthogonalEdgeStyle;rounded=0;orthogonalLoop=1;jettySize=auto;html=1;entryX=0;entryY=0.5;entryDx=0;entryDy=0;" edge="1" parent="1" source="Xz7eyc5uEQ6jUvVsmEZb-33" target="Xz7eyc5uEQ6jUvVsmEZb-35">
          <mxGeometry relative="1" as="geometry" />
        </mxCell>
        <mxCell id="Xz7eyc5uEQ6jUvVsmEZb-33" value="Dang Ky" style="whiteSpace=wrap;html=1;align=center;" vertex="1" parent="1">
          <mxGeometry x="424" y="580" width="100" height="40" as="geometry" />
        </mxCell>
        <mxCell id="Xz7eyc5uEQ6jUvVsmEZb-34" value="Quay ve trang dang nhap" style="whiteSpace=wrap;html=1;align=center;" vertex="1" parent="1">
          <mxGeometry x="230" y="580" width="100" height="40" as="geometry" />
        </mxCell>
        <mxCell id="Xz7eyc5uEQ6jUvVsmEZb-37" style="rounded=0;orthogonalLoop=1;jettySize=auto;html=1;exitX=1;exitY=0.5;exitDx=0;exitDy=0;entryX=0;entryY=0.5;entryDx=0;entryDy=0;" edge="1" parent="1" source="Xz7eyc5uEQ6jUvVsmEZb-35" target="Xz7eyc5uEQ6jUvVsmEZb-41">
          <mxGeometry relative="1" as="geometry">
            <mxPoint x="830" y="600" as="targetPoint" />
          </mxGeometry>
        </mxCell>
        <mxCell id="Xz7eyc5uEQ6jUvVsmEZb-38" value="YES" style="edgeLabel;html=1;align=center;verticalAlign=middle;resizable=0;points=[];" vertex="1" connectable="0" parent="Xz7eyc5uEQ6jUvVsmEZb-37">
          <mxGeometry x="0.3101" y="-2" relative="1" as="geometry">
            <mxPoint as="offset" />
          </mxGeometry>
        </mxCell>
        <mxCell id="Xz7eyc5uEQ6jUvVsmEZb-39" style="edgeStyle=orthogonalEdgeStyle;rounded=0;orthogonalLoop=1;jettySize=auto;html=1;entryX=1;entryY=0.5;entryDx=0;entryDy=0;" edge="1" parent="1" source="Xz7eyc5uEQ6jUvVsmEZb-35" target="Xz7eyc5uEQ6jUvVsmEZb-2">
          <mxGeometry relative="1" as="geometry">
            <mxPoint x="770" y="410" as="targetPoint" />
            <Array as="points">
              <mxPoint x="620" y="550" />
              <mxPoint x="771" y="550" />
              <mxPoint x="771" y="350" />
            </Array>
          </mxGeometry>
        </mxCell>
        <mxCell id="Xz7eyc5uEQ6jUvVsmEZb-40" value="NO" style="edgeLabel;html=1;align=center;verticalAlign=middle;resizable=0;points=[];" vertex="1" connectable="0" parent="Xz7eyc5uEQ6jUvVsmEZb-39">
          <mxGeometry x="-0.6066" relative="1" as="geometry">
            <mxPoint as="offset" />
          </mxGeometry>
        </mxCell>
        <mxCell id="Xz7eyc5uEQ6jUvVsmEZb-35" value="CHECK THANH CONG" style="whiteSpace=wrap;html=1;align=center;" vertex="1" parent="1">
          <mxGeometry x="570" y="580" width="100" height="40" as="geometry" />
        </mxCell>
        <mxCell id="Xz7eyc5uEQ6jUvVsmEZb-41" value="INSERT" style="whiteSpace=wrap;html=1;align=center;" vertex="1" parent="1">
          <mxGeometry x="820" y="580" width="100" height="40" as="geometry" />
        </mxCell>
        <mxCell id="Xz7eyc5uEQ6jUvVsmEZb-42" value="ĐĂNG NHẬP" style="swimlane;fontStyle=0;childLayout=stackLayout;horizontal=1;startSize=26;horizontalStack=0;resizeParent=1;resizeParentMax=0;resizeLast=0;collapsible=1;marginBottom=0;align=center;fontSize=14;" vertex="1" parent="1">
          <mxGeometry x="-20" y="330" width="160" height="146" as="geometry" />
        </mxCell>
        <mxCell id="Xz7eyc5uEQ6jUvVsmEZb-43" value="Tai khoan" style="text;strokeColor=none;fillColor=none;spacingLeft=4;spacingRight=4;overflow=hidden;rotatable=0;points=[[0,0.5],[1,0.5]];portConstraint=eastwest;fontSize=12;whiteSpace=wrap;html=1;" vertex="1" parent="Xz7eyc5uEQ6jUvVsmEZb-42">
          <mxGeometry y="26" width="160" height="30" as="geometry" />
        </mxCell>
        <mxCell id="Xz7eyc5uEQ6jUvVsmEZb-44" value="Mat khau ( CHECK PASS VA USER)" style="text;strokeColor=none;fillColor=none;spacingLeft=4;spacingRight=4;overflow=hidden;rotatable=0;points=[[0,0.5],[1,0.5]];portConstraint=eastwest;fontSize=12;whiteSpace=wrap;html=1;" vertex="1" parent="Xz7eyc5uEQ6jUvVsmEZb-42">
          <mxGeometry y="56" width="160" height="30" as="geometry" />
        </mxCell>
        <mxCell id="Xz7eyc5uEQ6jUvVsmEZb-45" value="Đang nhập" style="text;strokeColor=none;fillColor=none;spacingLeft=4;spacingRight=4;overflow=hidden;rotatable=0;points=[[0,0.5],[1,0.5]];portConstraint=eastwest;fontSize=12;whiteSpace=wrap;html=1;" vertex="1" parent="Xz7eyc5uEQ6jUvVsmEZb-42">
          <mxGeometry y="86" width="160" height="30" as="geometry" />
        </mxCell>
        <mxCell id="Xz7eyc5uEQ6jUvVsmEZb-61" value="Đăng ký&lt;br&gt;" style="text;strokeColor=none;fillColor=none;spacingLeft=4;spacingRight=4;overflow=hidden;rotatable=0;points=[[0,0.5],[1,0.5]];portConstraint=eastwest;fontSize=12;whiteSpace=wrap;html=1;" vertex="1" parent="Xz7eyc5uEQ6jUvVsmEZb-42">
          <mxGeometry y="116" width="160" height="30" as="geometry" />
        </mxCell>
        <mxCell id="Xz7eyc5uEQ6jUvVsmEZb-52" value="" style="rounded=0;whiteSpace=wrap;html=1;" vertex="1" parent="1">
          <mxGeometry x="-106" y="760" width="630" height="250" as="geometry" />
        </mxCell>
        <mxCell id="Xz7eyc5uEQ6jUvVsmEZb-53" value="GUEST" style="text;html=1;strokeColor=none;fillColor=none;align=center;verticalAlign=middle;whiteSpace=wrap;rounded=0;fontSize=23;fontStyle=3" vertex="1" parent="1">
          <mxGeometry x="124" y="770" width="170" height="30" as="geometry" />
        </mxCell>
        <mxCell id="Xz7eyc5uEQ6jUvVsmEZb-56" value="độc giả" style="rounded=0;whiteSpace=wrap;html=1;fontSize=25;" vertex="1" parent="1">
          <mxGeometry x="-950" y="160" width="630" height="390" as="geometry" />
        </mxCell>
        <mxCell id="Xz7eyc5uEQ6jUvVsmEZb-62" style="rounded=0;orthogonalLoop=1;jettySize=auto;html=1;entryX=-0.001;entryY=0.694;entryDx=0;entryDy=0;entryPerimeter=0;" edge="1" parent="1" source="Xz7eyc5uEQ6jUvVsmEZb-61" target="Xz7eyc5uEQ6jUvVsmEZb-2">
          <mxGeometry relative="1" as="geometry" />
        </mxCell>
        <mxCell id="Xz7eyc5uEQ6jUvVsmEZb-69" value="" style="endArrow=classic;html=1;rounded=0;entryX=1;entryY=0;entryDx=0;entryDy=0;exitX=0;exitY=0.889;exitDx=0;exitDy=0;exitPerimeter=0;" edge="1" parent="1" source="Xz7eyc5uEQ6jUvVsmEZb-2" target="Xz7eyc5uEQ6jUvVsmEZb-42">
          <mxGeometry width="50" height="50" relative="1" as="geometry">
            <mxPoint x="100" y="510" as="sourcePoint" />
            <mxPoint x="150" y="460" as="targetPoint" />
          </mxGeometry>
        </mxCell>
        <mxCell id="Xz7eyc5uEQ6jUvVsmEZb-70" value="" style="endArrow=classic;html=1;rounded=0;entryX=1;entryY=0.25;entryDx=0;entryDy=0;exitX=0;exitY=0.5;exitDx=0;exitDy=0;" edge="1" parent="1" source="Xz7eyc5uEQ6jUvVsmEZb-45" target="Xz7eyc5uEQ6jUvVsmEZb-56">
          <mxGeometry width="50" height="50" relative="1" as="geometry">
            <mxPoint x="-260" y="320" as="sourcePoint" />
            <mxPoint x="-210" y="270" as="targetPoint" />
          </mxGeometry>
        </mxCell>
        <mxCell id="Xz7eyc5uEQ6jUvVsmEZb-71" value="ĐỘC GIẢ" style="edgeLabel;html=1;align=center;verticalAlign=middle;resizable=0;points=[];fontSize=16;" vertex="1" connectable="0" parent="Xz7eyc5uEQ6jUvVsmEZb-70">
          <mxGeometry x="-0.1012" y="-1" relative="1" as="geometry">
            <mxPoint as="offset" />
          </mxGeometry>
        </mxCell>
        <mxCell id="Xz7eyc5uEQ6jUvVsmEZb-72" value="" style="endArrow=classic;html=1;rounded=0;entryX=0.25;entryY=0;entryDx=0;entryDy=0;exitX=0;exitY=0.5;exitDx=0;exitDy=0;" edge="1" parent="1" source="Xz7eyc5uEQ6jUvVsmEZb-45" target="Xz7eyc5uEQ6jUvVsmEZb-52">
          <mxGeometry width="50" height="50" relative="1" as="geometry">
            <mxPoint x="170" y="718" as="sourcePoint" />
            <mxPoint x="-130" y="510" as="targetPoint" />
          </mxGeometry>
        </mxCell>
        <mxCell id="Xz7eyc5uEQ6jUvVsmEZb-73" value="GUEST" style="edgeLabel;html=1;align=center;verticalAlign=middle;resizable=0;points=[];fontSize=16;" vertex="1" connectable="0" parent="Xz7eyc5uEQ6jUvVsmEZb-72">
          <mxGeometry x="-0.1012" y="-1" relative="1" as="geometry">
            <mxPoint as="offset" />
          </mxGeometry>
        </mxCell>
        <mxCell id="Xz7eyc5uEQ6jUvVsmEZb-74" value="PHAN MEM QUAN LY THU VIEN" style="rounded=0;whiteSpace=wrap;html=1;" vertex="1" parent="1">
          <mxGeometry x="-943.5" y="170" width="613.5" height="20" as="geometry" />
        </mxCell>
        <mxCell id="Xz7eyc5uEQ6jUvVsmEZb-134" style="rounded=0;orthogonalLoop=1;jettySize=auto;html=1;entryX=0.75;entryY=1;entryDx=0;entryDy=0;" edge="1" parent="1" source="Xz7eyc5uEQ6jUvVsmEZb-75" target="Xz7eyc5uEQ6jUvVsmEZb-140">
          <mxGeometry relative="1" as="geometry">
            <mxPoint x="-510" y="40" as="targetPoint" />
          </mxGeometry>
        </mxCell>
        <mxCell id="Xz7eyc5uEQ6jUvVsmEZb-75" value="Thong tin ca nhan (Logo/username -&amp;nbsp; DROPDOWN)" style="rounded=0;whiteSpace=wrap;html=1;" vertex="1" parent="1">
          <mxGeometry x="-560" y="200" width="241.75" height="30" as="geometry" />
        </mxCell>
        <mxCell id="Xz7eyc5uEQ6jUvVsmEZb-76" value="Trang chủ" style="rounded=0;whiteSpace=wrap;html=1;" vertex="1" parent="1">
          <mxGeometry x="-943.5" y="200" width="213.5" height="30" as="geometry" />
        </mxCell>
        <mxCell id="Xz7eyc5uEQ6jUvVsmEZb-77" value="" style="endArrow=classic;html=1;rounded=0;exitX=0;exitY=0.5;exitDx=0;exitDy=0;entryX=0.5;entryY=0;entryDx=0;entryDy=0;" edge="1" parent="1" source="Xz7eyc5uEQ6jUvVsmEZb-76" target="Xz7eyc5uEQ6jUvVsmEZb-78">
          <mxGeometry width="50" height="50" relative="1" as="geometry">
            <mxPoint x="-1040" y="360" as="sourcePoint" />
            <mxPoint x="-1050" y="270" as="targetPoint" />
          </mxGeometry>
        </mxCell>
        <mxCell id="Xz7eyc5uEQ6jUvVsmEZb-78" value="" style="rounded=0;whiteSpace=wrap;html=1;" vertex="1" parent="1">
          <mxGeometry x="-1410" y="300" width="410" height="330" as="geometry" />
        </mxCell>
        <mxCell id="Xz7eyc5uEQ6jUvVsmEZb-85" value="Sách" style="swimlane;fontStyle=0;childLayout=stackLayout;horizontal=1;startSize=26;horizontalStack=0;resizeParent=1;resizeParentMax=0;resizeLast=0;collapsible=1;marginBottom=0;align=center;fontSize=14;" vertex="1" parent="1">
          <mxGeometry x="-1380" y="420" width="120" height="176" as="geometry" />
        </mxCell>
        <mxCell id="Xz7eyc5uEQ6jUvVsmEZb-92" value="IMG" style="text;strokeColor=none;fillColor=none;spacingLeft=4;spacingRight=4;overflow=hidden;rotatable=0;points=[[0,0.5],[1,0.5]];portConstraint=eastwest;fontSize=12;whiteSpace=wrap;html=1;" vertex="1" parent="Xz7eyc5uEQ6jUvVsmEZb-85">
          <mxGeometry y="26" width="120" height="30" as="geometry" />
        </mxCell>
        <mxCell id="Xz7eyc5uEQ6jUvVsmEZb-86" value="Tên" style="text;strokeColor=none;fillColor=none;spacingLeft=4;spacingRight=4;overflow=hidden;rotatable=0;points=[[0,0.5],[1,0.5]];portConstraint=eastwest;fontSize=12;whiteSpace=wrap;html=1;" vertex="1" parent="Xz7eyc5uEQ6jUvVsmEZb-85">
          <mxGeometry y="56" width="120" height="30" as="geometry" />
        </mxCell>
        <mxCell id="Xz7eyc5uEQ6jUvVsmEZb-87" value="Tác giả" style="text;strokeColor=none;fillColor=none;spacingLeft=4;spacingRight=4;overflow=hidden;rotatable=0;points=[[0,0.5],[1,0.5]];portConstraint=eastwest;fontSize=12;whiteSpace=wrap;html=1;" vertex="1" parent="Xz7eyc5uEQ6jUvVsmEZb-85">
          <mxGeometry y="86" width="120" height="30" as="geometry" />
        </mxCell>
        <mxCell id="Xz7eyc5uEQ6jUvVsmEZb-88" value="Số lương còn lại" style="text;strokeColor=none;fillColor=none;spacingLeft=4;spacingRight=4;overflow=hidden;rotatable=0;points=[[0,0.5],[1,0.5]];portConstraint=eastwest;fontSize=12;whiteSpace=wrap;html=1;" vertex="1" parent="Xz7eyc5uEQ6jUvVsmEZb-85">
          <mxGeometry y="116" width="120" height="30" as="geometry" />
        </mxCell>
        <mxCell id="Xz7eyc5uEQ6jUvVsmEZb-89" value="XEM CHI TIẾT" style="text;strokeColor=none;fillColor=none;spacingLeft=4;spacingRight=4;overflow=hidden;rotatable=0;points=[[0,0.5],[1,0.5]];portConstraint=eastwest;fontSize=12;whiteSpace=wrap;html=1;" vertex="1" parent="Xz7eyc5uEQ6jUvVsmEZb-85">
          <mxGeometry y="146" width="120" height="30" as="geometry" />
        </mxCell>
        <mxCell id="Xz7eyc5uEQ6jUvVsmEZb-90" value="" style="endArrow=classic;html=1;rounded=0;exitX=0;exitY=0.5;exitDx=0;exitDy=0;entryX=1;entryY=0.5;entryDx=0;entryDy=0;" edge="1" parent="1" source="Xz7eyc5uEQ6jUvVsmEZb-89" target="Xz7eyc5uEQ6jUvVsmEZb-91">
          <mxGeometry width="50" height="50" relative="1" as="geometry">
            <mxPoint x="-1328" y="585" as="sourcePoint" />
            <mxPoint x="-1600" y="480" as="targetPoint" />
          </mxGeometry>
        </mxCell>
        <mxCell id="Xz7eyc5uEQ6jUvVsmEZb-91" value="" style="rounded=0;whiteSpace=wrap;html=1;" vertex="1" parent="1">
          <mxGeometry x="-2060" y="330" width="500" height="340" as="geometry" />
        </mxCell>
        <mxCell id="Xz7eyc5uEQ6jUvVsmEZb-93" value="HÌNH" style="rounded=0;whiteSpace=wrap;html=1;" vertex="1" parent="1">
          <mxGeometry x="-2030" y="350" width="140" height="212" as="geometry" />
        </mxCell>
        <mxCell id="Xz7eyc5uEQ6jUvVsmEZb-96" value="INFO" style="rounded=0;whiteSpace=wrap;html=1;" vertex="1" parent="1">
          <mxGeometry x="-1810" y="352" width="240" height="210" as="geometry" />
        </mxCell>
        <mxCell id="Xz7eyc5uEQ6jUvVsmEZb-97" value="Đăng ký mượn" style="whiteSpace=wrap;html=1;align=center;" vertex="1" parent="1">
          <mxGeometry x="-1950" y="610" width="100" height="40" as="geometry" />
        </mxCell>
        <mxCell id="Xz7eyc5uEQ6jUvVsmEZb-111" style="edgeStyle=orthogonalEdgeStyle;rounded=0;orthogonalLoop=1;jettySize=auto;html=1;entryX=0.479;entryY=1;entryDx=0;entryDy=0;entryPerimeter=0;" edge="1" parent="1" source="Xz7eyc5uEQ6jUvVsmEZb-98" target="Xz7eyc5uEQ6jUvVsmEZb-78">
          <mxGeometry relative="1" as="geometry">
            <Array as="points">
              <mxPoint x="-1750" y="690" />
              <mxPoint x="-1214" y="690" />
            </Array>
          </mxGeometry>
        </mxCell>
        <mxCell id="Xz7eyc5uEQ6jUvVsmEZb-98" value="Thoát" style="whiteSpace=wrap;html=1;align=center;" vertex="1" parent="1">
          <mxGeometry x="-1820" y="610" width="100" height="40" as="geometry" />
        </mxCell>
        <mxCell id="Xz7eyc5uEQ6jUvVsmEZb-100" value="Thon tin sach" style="text;html=1;strokeColor=none;fillColor=none;align=center;verticalAlign=middle;whiteSpace=wrap;rounded=0;" vertex="1" parent="1">
          <mxGeometry x="-1910" y="330" width="130" height="30" as="geometry" />
        </mxCell>
        <mxCell id="Xz7eyc5uEQ6jUvVsmEZb-101" value="" style="endArrow=classic;html=1;rounded=0;exitX=0.5;exitY=1;exitDx=0;exitDy=0;entryX=0.5;entryY=0;entryDx=0;entryDy=0;" edge="1" parent="1" source="Xz7eyc5uEQ6jUvVsmEZb-97" target="Xz7eyc5uEQ6jUvVsmEZb-102">
          <mxGeometry width="50" height="50" relative="1" as="geometry">
            <mxPoint x="-1840" y="810" as="sourcePoint" />
            <mxPoint x="-2130" y="720" as="targetPoint" />
          </mxGeometry>
        </mxCell>
        <mxCell id="Xz7eyc5uEQ6jUvVsmEZb-102" value="" style="rounded=0;whiteSpace=wrap;html=1;" vertex="1" parent="1">
          <mxGeometry x="-2380" y="740" width="290" height="220" as="geometry" />
        </mxCell>
        <mxCell id="Xz7eyc5uEQ6jUvVsmEZb-103" value="Đăng ký mượn" style="swimlane;fontStyle=0;childLayout=stackLayout;horizontal=1;startSize=30;horizontalStack=0;resizeParent=1;resizeParentMax=0;resizeLast=0;collapsible=1;marginBottom=0;whiteSpace=wrap;html=1;" vertex="1" parent="1">
          <mxGeometry x="-2330" y="760" width="140" height="120" as="geometry" />
        </mxCell>
        <mxCell id="Xz7eyc5uEQ6jUvVsmEZb-104" value="Thông tin sách" style="text;strokeColor=none;fillColor=none;align=left;verticalAlign=middle;spacingLeft=4;spacingRight=4;overflow=hidden;points=[[0,0.5],[1,0.5]];portConstraint=eastwest;rotatable=0;whiteSpace=wrap;html=1;" vertex="1" parent="Xz7eyc5uEQ6jUvVsmEZb-103">
          <mxGeometry y="30" width="140" height="30" as="geometry" />
        </mxCell>
        <mxCell id="Xz7eyc5uEQ6jUvVsmEZb-105" value="Số lượng" style="text;strokeColor=none;fillColor=none;align=left;verticalAlign=middle;spacingLeft=4;spacingRight=4;overflow=hidden;points=[[0,0.5],[1,0.5]];portConstraint=eastwest;rotatable=0;whiteSpace=wrap;html=1;" vertex="1" parent="Xz7eyc5uEQ6jUvVsmEZb-103">
          <mxGeometry y="60" width="140" height="30" as="geometry" />
        </mxCell>
        <mxCell id="Xz7eyc5uEQ6jUvVsmEZb-107" value="Thông tin người mượn" style="text;strokeColor=none;fillColor=none;align=left;verticalAlign=middle;spacingLeft=4;spacingRight=4;overflow=hidden;points=[[0,0.5],[1,0.5]];portConstraint=eastwest;rotatable=0;whiteSpace=wrap;html=1;" vertex="1" parent="Xz7eyc5uEQ6jUvVsmEZb-103">
          <mxGeometry y="90" width="140" height="30" as="geometry" />
        </mxCell>
        <mxCell id="Xz7eyc5uEQ6jUvVsmEZb-133" style="rounded=0;orthogonalLoop=1;jettySize=auto;html=1;entryX=0.5;entryY=0;entryDx=0;entryDy=0;" edge="1" parent="1" source="Xz7eyc5uEQ6jUvVsmEZb-108" target="Xz7eyc5uEQ6jUvVsmEZb-129">
          <mxGeometry relative="1" as="geometry" />
        </mxCell>
        <mxCell id="Xz7eyc5uEQ6jUvVsmEZb-108" value="Xác Nhận" style="whiteSpace=wrap;html=1;align=center;" vertex="1" parent="1">
          <mxGeometry x="-2330" y="900" width="100" height="40" as="geometry" />
        </mxCell>
        <mxCell id="Xz7eyc5uEQ6jUvVsmEZb-110" style="edgeStyle=orthogonalEdgeStyle;rounded=0;orthogonalLoop=1;jettySize=auto;html=1;entryX=0.5;entryY=1;entryDx=0;entryDy=0;" edge="1" parent="1" source="Xz7eyc5uEQ6jUvVsmEZb-109" target="Xz7eyc5uEQ6jUvVsmEZb-91">
          <mxGeometry relative="1" as="geometry" />
        </mxCell>
        <mxCell id="Xz7eyc5uEQ6jUvVsmEZb-109" value="Thoat" style="whiteSpace=wrap;html=1;align=center;" vertex="1" parent="1">
          <mxGeometry x="-2220" y="900" width="100" height="40" as="geometry" />
        </mxCell>
        <mxCell id="Xz7eyc5uEQ6jUvVsmEZb-113" style="edgeStyle=orthogonalEdgeStyle;rounded=0;orthogonalLoop=1;jettySize=auto;html=1;entryX=0.5;entryY=1;entryDx=0;entryDy=0;" edge="1" parent="1" source="Xz7eyc5uEQ6jUvVsmEZb-112" target="Xz7eyc5uEQ6jUvVsmEZb-56">
          <mxGeometry relative="1" as="geometry" />
        </mxCell>
        <mxCell id="Xz7eyc5uEQ6jUvVsmEZb-112" value="Quay lại" style="whiteSpace=wrap;html=1;align=center;" vertex="1" parent="1">
          <mxGeometry x="-1120" y="580" width="100" height="40" as="geometry" />
        </mxCell>
        <mxCell id="Xz7eyc5uEQ6jUvVsmEZb-114" value="Sách" style="swimlane;fontStyle=0;childLayout=stackLayout;horizontal=1;startSize=26;horizontalStack=0;resizeParent=1;resizeParentMax=0;resizeLast=0;collapsible=1;marginBottom=0;align=center;fontSize=14;" vertex="1" parent="1">
          <mxGeometry x="-1240" y="420" width="120" height="176" as="geometry" />
        </mxCell>
        <mxCell id="Xz7eyc5uEQ6jUvVsmEZb-115" value="IMG" style="text;strokeColor=none;fillColor=none;spacingLeft=4;spacingRight=4;overflow=hidden;rotatable=0;points=[[0,0.5],[1,0.5]];portConstraint=eastwest;fontSize=12;whiteSpace=wrap;html=1;" vertex="1" parent="Xz7eyc5uEQ6jUvVsmEZb-114">
          <mxGeometry y="26" width="120" height="30" as="geometry" />
        </mxCell>
        <mxCell id="Xz7eyc5uEQ6jUvVsmEZb-116" value="Tên" style="text;strokeColor=none;fillColor=none;spacingLeft=4;spacingRight=4;overflow=hidden;rotatable=0;points=[[0,0.5],[1,0.5]];portConstraint=eastwest;fontSize=12;whiteSpace=wrap;html=1;" vertex="1" parent="Xz7eyc5uEQ6jUvVsmEZb-114">
          <mxGeometry y="56" width="120" height="30" as="geometry" />
        </mxCell>
        <mxCell id="Xz7eyc5uEQ6jUvVsmEZb-117" value="Tác giả" style="text;strokeColor=none;fillColor=none;spacingLeft=4;spacingRight=4;overflow=hidden;rotatable=0;points=[[0,0.5],[1,0.5]];portConstraint=eastwest;fontSize=12;whiteSpace=wrap;html=1;" vertex="1" parent="Xz7eyc5uEQ6jUvVsmEZb-114">
          <mxGeometry y="86" width="120" height="30" as="geometry" />
        </mxCell>
        <mxCell id="Xz7eyc5uEQ6jUvVsmEZb-118" value="Số lương còn lại" style="text;strokeColor=none;fillColor=none;spacingLeft=4;spacingRight=4;overflow=hidden;rotatable=0;points=[[0,0.5],[1,0.5]];portConstraint=eastwest;fontSize=12;whiteSpace=wrap;html=1;" vertex="1" parent="Xz7eyc5uEQ6jUvVsmEZb-114">
          <mxGeometry y="116" width="120" height="30" as="geometry" />
        </mxCell>
        <mxCell id="Xz7eyc5uEQ6jUvVsmEZb-119" value="XEM CHI TIẾT" style="text;strokeColor=none;fillColor=none;spacingLeft=4;spacingRight=4;overflow=hidden;rotatable=0;points=[[0,0.5],[1,0.5]];portConstraint=eastwest;fontSize=12;whiteSpace=wrap;html=1;" vertex="1" parent="Xz7eyc5uEQ6jUvVsmEZb-114">
          <mxGeometry y="146" width="120" height="30" as="geometry" />
        </mxCell>
        <mxCell id="Xz7eyc5uEQ6jUvVsmEZb-125" style="rounded=0;orthogonalLoop=1;jettySize=auto;html=1;entryX=0;entryY=0.5;entryDx=0;entryDy=0;" edge="1" parent="1" source="Xz7eyc5uEQ6jUvVsmEZb-120" target="Xz7eyc5uEQ6jUvVsmEZb-123">
          <mxGeometry relative="1" as="geometry" />
        </mxCell>
        <mxCell id="Xz7eyc5uEQ6jUvVsmEZb-120" value="Tìm kiếm :" style="whiteSpace=wrap;html=1;align=center;" vertex="1" parent="1">
          <mxGeometry x="-1370" y="325" width="100" height="40" as="geometry" />
        </mxCell>
        <mxCell id="Xz7eyc5uEQ6jUvVsmEZb-127" style="rounded=0;orthogonalLoop=1;jettySize=auto;html=1;entryX=0;entryY=0.5;entryDx=0;entryDy=0;" edge="1" parent="1" source="Xz7eyc5uEQ6jUvVsmEZb-121" target="Xz7eyc5uEQ6jUvVsmEZb-126">
          <mxGeometry relative="1" as="geometry" />
        </mxCell>
        <mxCell id="Xz7eyc5uEQ6jUvVsmEZb-121" value="List" style="swimlane;fontStyle=0;childLayout=stackLayout;horizontal=1;startSize=26;horizontalStack=0;resizeParent=1;resizeParentMax=0;resizeLast=0;collapsible=1;marginBottom=0;align=center;fontSize=14;" vertex="1" parent="1">
          <mxGeometry x="-1216.32" y="300" width="96.32" height="116" as="geometry" />
        </mxCell>
        <mxCell id="Xz7eyc5uEQ6jUvVsmEZb-122" value="Tên tác giả&lt;span style=&quot;white-space: pre;&quot;&gt;	&lt;/span&gt;" style="text;strokeColor=none;fillColor=none;spacingLeft=4;spacingRight=4;overflow=hidden;rotatable=0;points=[[0,0.5],[1,0.5]];portConstraint=eastwest;fontSize=12;whiteSpace=wrap;html=1;" vertex="1" parent="Xz7eyc5uEQ6jUvVsmEZb-121">
          <mxGeometry y="26" width="96.32" height="30" as="geometry" />
        </mxCell>
        <mxCell id="Xz7eyc5uEQ6jUvVsmEZb-123" value="Tên sách" style="text;strokeColor=none;fillColor=none;spacingLeft=4;spacingRight=4;overflow=hidden;rotatable=0;points=[[0,0.5],[1,0.5]];portConstraint=eastwest;fontSize=12;whiteSpace=wrap;html=1;" vertex="1" parent="Xz7eyc5uEQ6jUvVsmEZb-121">
          <mxGeometry y="56" width="96.32" height="30" as="geometry" />
        </mxCell>
        <mxCell id="Xz7eyc5uEQ6jUvVsmEZb-124" value="Nhà xuát bản" style="text;strokeColor=none;fillColor=none;spacingLeft=4;spacingRight=4;overflow=hidden;rotatable=0;points=[[0,0.5],[1,0.5]];portConstraint=eastwest;fontSize=12;whiteSpace=wrap;html=1;" vertex="1" parent="Xz7eyc5uEQ6jUvVsmEZb-121">
          <mxGeometry y="86" width="96.32" height="30" as="geometry" />
        </mxCell>
        <mxCell id="Xz7eyc5uEQ6jUvVsmEZb-126" value="Có thể làm theo fillter" style="whiteSpace=wrap;html=1;align=center;" vertex="1" parent="1">
          <mxGeometry x="-1085" y="350" width="85" height="34" as="geometry" />
        </mxCell>
        <mxCell id="Xz7eyc5uEQ6jUvVsmEZb-129" value="INSERT" style="swimlane;fontStyle=0;childLayout=stackLayout;horizontal=1;startSize=26;horizontalStack=0;resizeParent=1;resizeParentMax=0;resizeLast=0;collapsible=1;marginBottom=0;align=center;fontSize=14;" vertex="1" parent="1">
          <mxGeometry x="-2360" y="1020" width="160" height="116" as="geometry" />
        </mxCell>
        <mxCell id="Xz7eyc5uEQ6jUvVsmEZb-130" value="Ngay tra" style="text;strokeColor=none;fillColor=none;spacingLeft=4;spacingRight=4;overflow=hidden;rotatable=0;points=[[0,0.5],[1,0.5]];portConstraint=eastwest;fontSize=12;whiteSpace=wrap;html=1;" vertex="1" parent="Xz7eyc5uEQ6jUvVsmEZb-129">
          <mxGeometry y="26" width="160" height="30" as="geometry" />
        </mxCell>
        <mxCell id="Xz7eyc5uEQ6jUvVsmEZb-131" value="Ngay muon" style="text;strokeColor=none;fillColor=none;spacingLeft=4;spacingRight=4;overflow=hidden;rotatable=0;points=[[0,0.5],[1,0.5]];portConstraint=eastwest;fontSize=12;whiteSpace=wrap;html=1;" vertex="1" parent="Xz7eyc5uEQ6jUvVsmEZb-129">
          <mxGeometry y="56" width="160" height="30" as="geometry" />
        </mxCell>
        <mxCell id="Xz7eyc5uEQ6jUvVsmEZb-132" value="Thong tin&amp;nbsp;" style="text;strokeColor=none;fillColor=none;spacingLeft=4;spacingRight=4;overflow=hidden;rotatable=0;points=[[0,0.5],[1,0.5]];portConstraint=eastwest;fontSize=12;whiteSpace=wrap;html=1;" vertex="1" parent="Xz7eyc5uEQ6jUvVsmEZb-129">
          <mxGeometry y="86" width="160" height="30" as="geometry" />
        </mxCell>
        <mxCell id="Xz7eyc5uEQ6jUvVsmEZb-140" value="" style="rounded=0;whiteSpace=wrap;html=1;" vertex="1" parent="1">
          <mxGeometry x="-660" y="-100" width="290" height="200" as="geometry" />
        </mxCell>
        <mxCell id="Xz7eyc5uEQ6jUvVsmEZb-141" value="Hien thi thong tin ca nhan" style="swimlane;fontStyle=0;childLayout=stackLayout;horizontal=1;startSize=26;horizontalStack=0;resizeParent=1;resizeParentMax=0;resizeLast=0;collapsible=1;marginBottom=0;align=center;fontSize=14;" vertex="1" parent="1">
          <mxGeometry x="-606.5" y="-90" width="183" height="116" as="geometry" />
        </mxCell>
        <mxCell id="Xz7eyc5uEQ6jUvVsmEZb-142" value="EDIT" style="text;strokeColor=none;fillColor=none;spacingLeft=4;spacingRight=4;overflow=hidden;rotatable=0;points=[[0,0.5],[1,0.5]];portConstraint=eastwest;fontSize=12;whiteSpace=wrap;html=1;" vertex="1" parent="Xz7eyc5uEQ6jUvVsmEZb-141">
          <mxGeometry y="26" width="183" height="30" as="geometry" />
        </mxCell>
        <mxCell id="Xz7eyc5uEQ6jUvVsmEZb-143" value="Đổi mật khẩu" style="text;strokeColor=none;fillColor=none;spacingLeft=4;spacingRight=4;overflow=hidden;rotatable=0;points=[[0,0.5],[1,0.5]];portConstraint=eastwest;fontSize=12;whiteSpace=wrap;html=1;" vertex="1" parent="Xz7eyc5uEQ6jUvVsmEZb-141">
          <mxGeometry y="56" width="183" height="30" as="geometry" />
        </mxCell>
        <mxCell id="Xz7eyc5uEQ6jUvVsmEZb-144" value="Item 3" style="text;strokeColor=none;fillColor=none;spacingLeft=4;spacingRight=4;overflow=hidden;rotatable=0;points=[[0,0.5],[1,0.5]];portConstraint=eastwest;fontSize=12;whiteSpace=wrap;html=1;" vertex="1" parent="Xz7eyc5uEQ6jUvVsmEZb-141">
          <mxGeometry y="86" width="183" height="30" as="geometry" />
        </mxCell>
        <mxCell id="Xz7eyc5uEQ6jUvVsmEZb-147" style="rounded=0;orthogonalLoop=1;jettySize=auto;html=1;entryX=0.75;entryY=0;entryDx=0;entryDy=0;" edge="1" parent="1" source="Xz7eyc5uEQ6jUvVsmEZb-146" target="Xz7eyc5uEQ6jUvVsmEZb-56">
          <mxGeometry relative="1" as="geometry" />
        </mxCell>
        <mxCell id="Xz7eyc5uEQ6jUvVsmEZb-146" value="QUAY LẠI" style="whiteSpace=wrap;html=1;align=center;" vertex="1" parent="1">
          <mxGeometry x="-523.5" y="37" width="100" height="40" as="geometry" />
        </mxCell>
        <mxCell id="Xz7eyc5uEQ6jUvVsmEZb-148" value="Yêu cầu mượn sách" style="rounded=0;whiteSpace=wrap;html=1;" vertex="1" parent="1">
          <mxGeometry x="-735" y="200" width="175" height="30" as="geometry" />
        </mxCell>
        <mxCell id="Xz7eyc5uEQ6jUvVsmEZb-162" style="edgeStyle=orthogonalEdgeStyle;rounded=0;orthogonalLoop=1;jettySize=auto;html=1;entryX=0.25;entryY=0;entryDx=0;entryDy=0;" edge="1" parent="1" source="Xz7eyc5uEQ6jUvVsmEZb-153" target="Xz7eyc5uEQ6jUvVsmEZb-148">
          <mxGeometry relative="1" as="geometry" />
        </mxCell>
        <mxCell id="Xz7eyc5uEQ6jUvVsmEZb-153" value="" style="rounded=0;whiteSpace=wrap;html=1;" vertex="1" parent="1">
          <mxGeometry x="-1030" y="-120" width="260" height="210" as="geometry" />
        </mxCell>
        <mxCell id="Xz7eyc5uEQ6jUvVsmEZb-154" value="List" style="swimlane;fontStyle=0;childLayout=stackLayout;horizontal=1;startSize=26;horizontalStack=0;resizeParent=1;resizeParentMax=0;resizeLast=0;collapsible=1;marginBottom=0;align=center;fontSize=14;" vertex="1" parent="1">
          <mxGeometry x="-980" y="-109" width="160" height="146" as="geometry" />
        </mxCell>
        <mxCell id="Xz7eyc5uEQ6jUvVsmEZb-155" value="Tên sách" style="text;strokeColor=none;fillColor=none;spacingLeft=4;spacingRight=4;overflow=hidden;rotatable=0;points=[[0,0.5],[1,0.5]];portConstraint=eastwest;fontSize=12;whiteSpace=wrap;html=1;" vertex="1" parent="Xz7eyc5uEQ6jUvVsmEZb-154">
          <mxGeometry y="26" width="160" height="30" as="geometry" />
        </mxCell>
        <mxCell id="Xz7eyc5uEQ6jUvVsmEZb-156" value="Tên tác giả" style="text;strokeColor=none;fillColor=none;spacingLeft=4;spacingRight=4;overflow=hidden;rotatable=0;points=[[0,0.5],[1,0.5]];portConstraint=eastwest;fontSize=12;whiteSpace=wrap;html=1;" vertex="1" parent="Xz7eyc5uEQ6jUvVsmEZb-154">
          <mxGeometry y="56" width="160" height="30" as="geometry" />
        </mxCell>
        <mxCell id="Xz7eyc5uEQ6jUvVsmEZb-158" value="Số lượng" style="text;strokeColor=none;fillColor=none;spacingLeft=4;spacingRight=4;overflow=hidden;rotatable=0;points=[[0,0.5],[1,0.5]];portConstraint=eastwest;fontSize=12;whiteSpace=wrap;html=1;" vertex="1" parent="Xz7eyc5uEQ6jUvVsmEZb-154">
          <mxGeometry y="86" width="160" height="30" as="geometry" />
        </mxCell>
        <mxCell id="Xz7eyc5uEQ6jUvVsmEZb-157" value="NXB" style="text;strokeColor=none;fillColor=none;spacingLeft=4;spacingRight=4;overflow=hidden;rotatable=0;points=[[0,0.5],[1,0.5]];portConstraint=eastwest;fontSize=12;whiteSpace=wrap;html=1;" vertex="1" parent="Xz7eyc5uEQ6jUvVsmEZb-154">
          <mxGeometry y="116" width="160" height="30" as="geometry" />
        </mxCell>
        <mxCell id="Xz7eyc5uEQ6jUvVsmEZb-170" style="edgeStyle=orthogonalEdgeStyle;rounded=0;orthogonalLoop=1;jettySize=auto;html=1;entryX=1;entryY=0.5;entryDx=0;entryDy=0;" edge="1" parent="1" source="Xz7eyc5uEQ6jUvVsmEZb-159" target="Xz7eyc5uEQ6jUvVsmEZb-169">
          <mxGeometry relative="1" as="geometry" />
        </mxCell>
        <mxCell id="Xz7eyc5uEQ6jUvVsmEZb-159" value="Xac nhan" style="whiteSpace=wrap;html=1;align=center;" vertex="1" parent="1">
          <mxGeometry x="-1020" y="50" width="100" height="40" as="geometry" />
        </mxCell>
        <mxCell id="Xz7eyc5uEQ6jUvVsmEZb-161" style="edgeStyle=orthogonalEdgeStyle;rounded=0;orthogonalLoop=1;jettySize=auto;html=1;entryX=0.25;entryY=0;entryDx=0;entryDy=0;" edge="1" parent="1" source="Xz7eyc5uEQ6jUvVsmEZb-160" target="Xz7eyc5uEQ6jUvVsmEZb-56">
          <mxGeometry relative="1" as="geometry" />
        </mxCell>
        <mxCell id="Xz7eyc5uEQ6jUvVsmEZb-160" value="Quay lai" style="whiteSpace=wrap;html=1;align=center;" vertex="1" parent="1">
          <mxGeometry x="-890" y="50" width="100" height="40" as="geometry" />
        </mxCell>
        <mxCell id="Xz7eyc5uEQ6jUvVsmEZb-163" value="Xác nhận" style="whiteSpace=wrap;html=1;align=center;" vertex="1" parent="1">
          <mxGeometry x="-650" y="40" width="100" height="40" as="geometry" />
        </mxCell>
        <mxCell id="Xz7eyc5uEQ6jUvVsmEZb-169" value="Gửi qua thống kê của Thủ thư" style="whiteSpace=wrap;html=1;align=center;" vertex="1" parent="1">
          <mxGeometry x="-1170" y="50" width="100" height="40" as="geometry" />
        </mxCell>
      </root>
    </mxGraphModel>
  </diagram>
</mxfile>
